<mxfile host="app.diagrams.net" modified="2024-02-01T12:05:23.196Z" agent="Mozilla/5.0 (Windows NT 10.0; Win64; x64) AppleWebKit/537.36 (KHTML, like Gecko) Chrome/120.0.0.0 Safari/537.36 Edg/120.0.0.0" version="23.1.0" etag="r-y0JTHVV-PmkPI8zFaV" type="github">
  <diagram name="Page-1" id="cdPdPpuq-LtVMbjI1LmB">
    <mxGraphModel>
      <root>
        <mxCell id="0" />
        <mxCell id="1" parent="0" />
      </root>
    </mxGraphModel>
  </diagram>
</mxfile>
